<svg xmlns="http://www.w3.org/2000/svg" viewBox="0 0 265.85 245.91"><g id="Layer_2" data-name="Layer 2"><g id="Layer_1-2" data-name="Layer 1"><path d="M265.78,105.32c.11,28.11-9.08,52.82-27.09,74.4-16.27,19.48-36.69,32.66-60.56,40.73a12.84,12.84,0,0,0-6.9,5.26c-9,13.1-21.38,20.07-37.5,20.2-16.85.14-29.94-6.68-39.13-20.79a11.64,11.64,0,0,0-6.73-4.75A132.26,132.26,0,0,1,46.22,198C21.49,178.34,6,153,1.31,121.54.17,113.84.28,106,0,98.13A13.12,13.12,0,0,1,3.25,88.4C8.32,83,16.69,84.27,20.46,91.21a51.67,51.67,0,0,0,15.43,18c15.57,11.1,42.58,16,63.31,2.77a122.28,122.28,0,0,0,11.55-7.87,39.46,39.46,0,0,0,6.61-7.38c1.74-2.34,1.23-4.51-1.19-6.47-4.39-3.57-8.56-7.41-12.83-11.12-10.46-9.1-10.12-21.58.67-30.39,4.25-3.47,8-7.55,12.36-10.88C128,29,142.19,30.1,152.73,40.22c3.48,3.34,7.21,6.42,10.68,9.78a32.3,32.3,0,0,1,4.41,5.4c3.89,5.87,4,11.93.09,17.8a45.17,45.17,0,0,1-6.13,7.19c-3.46,3.36-7.14,6.5-10.8,9.65-3.9,3.37-4.07,3.91-.9,8.08a52.56,52.56,0,0,0,24.27,17.76q27.81,10.19,53.31-4.91c7.2-4.27,12.51-10.38,16.82-17.46a31.45,31.45,0,0,1,3-4.56c2.72-3.12,6.15-4.55,10.3-3.37,4.6,1.32,7.61,4.7,7.91,9.24C266,98.3,265.78,101.82,265.78,105.32ZM162,170.9h0c0-12.16-.08-24.33.05-36.49,0-3.77-1.35-6.06-4.69-8-4.15-2.39-7.84-5.58-11.76-8.39-1-.75-2.18-1.36-3.28-2a28.24,28.24,0,0,0-1.32,4,23.08,23.08,0,0,0-.06,4q0,30.26,0,60.49a28.82,28.82,0,0,1-.45,6.45c-1.27,5.34-6.78,7.71-11.34,4.71a9.69,9.69,0,0,1-3.52-5.11,26.12,26.12,0,0,1-.59-7.42c0-21,0-42-.07-63a16.5,16.5,0,0,0-.91-3.68,18.84,18.84,0,0,0-3.47,1.57c-3.93,2.8-7.58,6-11.69,8.49-3.56,2.14-5,4.69-5,8.87.15,23.16.06,46.32.08,69.48,0,9.48,4.38,16.5,12.26,21.55,7.31,4.69,15.34,5.58,23.57,4,11.63-2.3,23.31-11.38,22.36-27C161.42,192.6,162,181.73,162,170.9Zm-73-2.51h0c0-8.82.07-17.65,0-26.48-.06-5-1.39-6.15-6.35-6-.83,0-1.66.16-2.49.25-22.15,2.49-41.86-3.16-59-17.58a16.66,16.66,0,0,0-2.91-1.6,14.21,14.21,0,0,0-.4,3.68A93.53,93.53,0,0,0,27.53,151c11.74,22.07,29.41,38,51.89,48.65a21.29,21.29,0,0,0,3.71,1.45c3.34.87,5.05-.25,5.6-3.72a30.49,30.49,0,0,0,.19-4.49Q88.94,180.63,88.92,168.39Zm88.94.14c0,9-.06,18,0,27,.06,6.16,1.83,7.26,7.27,4.78,25.33-11.55,44.54-29.37,56-55A89.39,89.39,0,0,0,248.55,120a9.41,9.41,0,0,0-.3-2.38c-.89.19-2,.11-2.64.6-2.56,1.85-4.85,4.08-7.48,5.8-16.08,10.53-33.66,14.68-52.77,12.15-6.23-.83-7.46.24-7.49,6.44C177.82,151.23,177.86,159.88,177.86,168.53Z"/><path d="M216.27,41.14c-12,.1-20.85-10.26-20.44-20.59C196.29,9,204.66,0,215.9,0a21.09,21.09,0,0,1,20.9,21A20.72,20.72,0,0,1,216.27,41.14Z"/><path d="M50.16,41.13c-11.57-.11-21.1-9.19-20.7-20.57C29.92,7.91,39.06.08,49.91.18c12.29.11,20.48,9,20.73,20.65C70.87,32,61.06,41.24,50.16,41.13Z"/></g></g></svg>